<svg xmlns="http://www.w3.org/2000/svg" viewBox="0 0 1120 280" role="img" aria-label="Alphabet picture cards A to G">
  <rect width="1120" height="280" fill="#f7f7f7"/>
  <defs>
    <filter id="shadow" x="-20%" y="-20%" width="140%" height="140%">
      <feDropShadow dx="0" dy="4" stdDeviation="6" flood-color="#000" flood-opacity=".2"/>
    </filter>
  </defs>
  <g font-family="Arial, Helvetica, sans-serif" text-anchor="middle" filter="url(#shadow)">
    <g transform="translate(28 20)">
      <rect width="140" height="240" rx="18" fill="#fffaf0"/>
      <text x="70" y="62" font-size="54" fill="#111">A a</text>
      <circle cx="70" cy="124" r="32" fill="#e53935"/><circle cx="86" cy="112" r="8" fill="#ff8a80"/><path d="M70 88c8 0 18-9 20-20" stroke="#6d4c41" stroke-width="5" fill="none"/><path d="M62 78c-20-12-28-10-32-8 3 16 16 24 32 8z" fill="#63a52b"/>
      <text x="70" y="210" font-size="34" fill="#111">apple</text>
    </g>
    <g transform="translate(184 20)">
      <rect width="140" height="240" rx="18" fill="#fffaf0"/>
      <text x="70" y="62" font-size="54" fill="#111">B b</text>
      <path d="M42 142c5-34 51-34 56 0z" fill="#f2c230" stroke="#8a5a00" stroke-width="4"/><rect x="40" y="143" width="60" height="12" rx="6" fill="#d99a00"/><path d="M88 96c20-18 34-18 18 8l-24 38" stroke="#9b4d1a" stroke-width="12" stroke-linecap="round"/>
      <text x="70" y="210" font-size="34" fill="#111">bell</text>
    </g>
    <g transform="translate(340 20)">
      <rect width="140" height="240" rx="18" fill="#fffaf0"/>
      <text x="70" y="62" font-size="54" fill="#111">C c</text>
      <circle cx="70" cy="124" r="34" fill="#f59d45"/><polygon points="45,97 55,66 67,98" fill="#f59d45"/><polygon points="78,98 92,66 99,100" fill="#f59d45"/><circle cx="58" cy="120" r="4"/><circle cx="82" cy="120" r="4"/><path d="M62 136q8 8 16 0" stroke="#6d3b14" stroke-width="4" fill="none"/>
      <text x="70" y="210" font-size="34" fill="#111">cat</text>
    </g>
    <g transform="translate(496 20)">
      <rect width="140" height="240" rx="18" fill="#fffaf0"/>
      <text x="70" y="62" font-size="54" fill="#111">D d</text>
      <ellipse cx="70" cy="128" rx="42" ry="34" fill="#d79645"/><circle cx="70" cy="104" r="28" fill="#f3c170"/><circle cx="60" cy="104" r="4"/><circle cx="80" cy="104" r="4"/><path d="M62 116q8 10 16 0" stroke="#6d3b14" stroke-width="4" fill="none"/><ellipse cx="45" cy="105" rx="12" ry="24" fill="#c67c2d"/><ellipse cx="95" cy="105" rx="12" ry="24" fill="#c67c2d"/>
      <text x="70" y="210" font-size="34" fill="#111">dog</text>
    </g>
    <g transform="translate(652 20)">
      <rect width="140" height="240" rx="18" fill="#fffaf0"/>
      <text x="70" y="62" font-size="54" fill="#111">E e</text>
      <ellipse cx="70" cy="116" rx="30" ry="40" fill="#f7b076" stroke="#c66b2b" stroke-width="4"/><path d="M42 142h56l-10 30H52z" fill="#cfd8dc" stroke="#78909c" stroke-width="4"/>
      <text x="70" y="210" font-size="34" fill="#111">egg</text>
    </g>
    <g transform="translate(808 20)">
      <rect width="140" height="240" rx="18" fill="#fffaf0"/>
      <text x="70" y="62" font-size="54" fill="#111">F f</text>
      <path d="M38 134c10-38 54-42 76-6 10 18-3 42-34 44-24 2-48-12-42-38z" fill="#e86b20"/><polygon points="44,98 55,68 68,102" fill="#e86b20"/><polygon points="88,102 108,72 107,112" fill="#e86b20"/><circle cx="64" cy="120" r="4"/><circle cx="84" cy="120" r="4"/><path d="M116 134c20-14 26-6 10 22" stroke="#e86b20" stroke-width="14" stroke-linecap="round" fill="none"/>
      <text x="70" y="210" font-size="34" fill="#111">fox</text>
    </g>
    <g transform="translate(964 20)">
      <rect width="140" height="240" rx="18" fill="#fffaf0"/>
      <text x="70" y="62" font-size="54" fill="#111">G g</text>
      <rect x="42" y="92" width="58" height="76" rx="8" fill="#b9e6c9" stroke="#4aa36f" stroke-width="4"/><path d="M100 88l18-14" stroke="#78909c" stroke-width="7" stroke-linecap="round"/><path d="M70 120c12 18 12 28 0 34-12-6-12-16 0-34z" fill="#42a047"/>
      <text x="70" y="210" font-size="34" fill="#111">gas</text>
    </g>
  </g>
</svg>
